<svg width="12" height="12" viewBox="0 0 12 12" fill="none" xmlns="http://www.w3.org/2000/svg">
<path d="M7.34314 1.12744C7.70953 0.828835 8.23936 0.828973 8.60583 1.12744L8.68201 1.19678L10.8031 3.31787L10.8724 3.39404C11.1713 3.76052 11.1711 4.29019 10.8724 4.65674L10.8031 4.73291L4.73181 10.8032C4.56767 10.9674 4.3524 11.0686 4.12341 11.0913L4.04431 11.0952H6.43884L7.43787 10.0962H10.9037V11.0962H1.90369C1.35145 11.0961 0.903687 10.6484 0.903687 10.0962V7.9751C0.903737 7.70996 1.00917 7.45556 1.19666 7.26807L7.26794 1.19678L7.34314 1.12744ZM1.90369 7.9751V10.0962H4.02478L10.0961 4.0249L7.97498 1.90381L1.90369 7.9751Z" fill="black" fill-opacity="0.6"/>
</svg>
