<svg width="48" height="48" viewBox="0 0 48 48" fill="none" xmlns="http://www.w3.org/2000/svg">
<g clip-path="url(#clip0_10564_2423)">
<path d="M40 8C42.2091 8 44 9.79086 44 12V36C44 38.2091 42.2091 40 40 40H8C5.79086 40 4 38.2091 4 36V12C4 9.79086 5.79086 8 8 8H40ZM17.0801 21.4307C16.6262 20.8006 15.6586 20.9053 15.3506 21.6182L10.6035 32.6035C10.3184 33.2637 10.8024 34 11.5215 34H30.1504C30.9451 33.9997 31.4217 33.1171 30.9863 32.4521L26.1885 25.124C25.8066 24.5408 24.9603 24.5178 24.5469 25.0791L22.5068 27.8477C22.3056 28.1204 21.8974 28.1178 21.6992 27.8428L17.0801 21.4307ZM35.5 13C33.567 13 32 14.567 32 16.5C32 18.433 33.567 20 35.5 20C37.433 20 39 18.433 39 16.5C39 14.567 37.433 13 35.5 13Z" fill="black" fill-opacity="0.4"/>
</g>
<defs>
<clipPath id="clip0_10564_2423">
<rect width="48" height="48" fill="white"/>
</clipPath>
</defs>
</svg>
