<svg width="24" height="24" viewBox="0 0 24 24" fill="none" xmlns="http://www.w3.org/2000/svg">
<g opacity="0.6">
<path d="M14.4341 4.125C15.4003 4.12536 16.1841 4.90872 16.1841 5.875V6.93652C16.1839 7.782 15.7942 8.5814 15.1284 9.10254L11.4253 12H11.4263L10.1509 12.9941L10.1528 12.9951L6.21436 16.0791C5.91176 16.3159 5.73498 16.6792 5.73486 17.0635V18.125C5.7351 18.2629 5.84694 18.375 5.98486 18.375H12.314C12.7917 19.0092 13.4165 19.5264 14.1382 19.875H5.98486C5.01851 19.875 4.2351 19.0913 4.23486 18.125V17.0635C4.23498 16.2181 4.62388 15.4196 5.28955 14.8984L8.9917 12L5.28955 9.10254C4.62373 8.5814 4.235 7.78203 4.23486 6.93652V5.875C4.23486 4.9085 5.01837 4.125 5.98486 4.125H14.4341ZM15.5493 11.8184C17.1531 11.8999 18.429 13.2266 18.4292 14.8506L18.4253 15.0068C18.3938 15.6248 18.1756 16.1929 17.8286 16.6592L19.7651 18.5938L19.2358 19.125L18.7056 19.6553L16.6567 17.6074C16.2718 17.7841 15.8443 17.8866 15.3931 17.8867L15.2368 17.8828C13.6848 17.804 12.4398 16.5588 12.3608 15.0068L12.3569 14.8506C12.3571 13.1742 13.7167 11.8147 15.3931 11.8145L15.5493 11.8184ZM15.3931 13.3145C14.5451 13.3147 13.8571 14.0026 13.8569 14.8506C13.8573 15.6984 14.5452 16.3865 15.3931 16.3867C16.2409 16.3865 16.9288 15.6984 16.9292 14.8506C16.929 14.0026 16.241 13.3147 15.3931 13.3145ZM5.98486 5.625C5.84679 5.625 5.73486 5.73693 5.73486 5.875V6.93652C5.735 7.32074 5.9118 7.68406 6.21436 7.9209L10.2085 11.0479L14.2046 7.9209C14.507 7.68406 14.6839 7.32065 14.6841 6.93652V5.875C14.6841 5.73715 14.5718 5.62536 14.4341 5.625H5.98486Z" fill="black"/>
</g>
</svg>
