<svg width="24" height="24" viewBox="0 0 24 24" fill="none" xmlns="http://www.w3.org/2000/svg">
<g opacity="0.6">
<mask id="path-1-inside-1_9597_1120" fill="white">
<path d="M11.7109 5C14.1773 5 16.2158 6.8269 16.5498 9.20117C16.5664 9.20099 16.583 9.2002 16.5996 9.2002C19.0297 9.2002 21 11.1693 21 13.5986C21 15.8931 19.2425 17.7754 17 17.9775V17.999H7.40039V17.9971L7.17383 17.9912C4.84891 17.8735 3.00004 15.952 3 13.5986C3 11.3493 4.68894 9.49492 6.86816 9.23242C7.18858 6.84302 9.23385 5.00014 11.7109 5Z"/>
</mask>
<path d="M11.7109 5V3.5H11.7109L11.7109 5ZM16.5498 9.20117L15.0644 9.41014L15.2481 10.7158L16.5666 10.7011L16.5498 9.20117ZM16.5996 9.2002V7.7002H16.5995L16.5996 9.2002ZM21 13.5986L22.5 13.5986V13.5986H21ZM17 17.9775L16.8654 16.4836L15.5 16.6066V17.9775H17ZM17 17.999V19.499H18.5V17.999H17ZM7.40039 17.999H5.90039V19.499H7.40039V17.999ZM7.40039 17.9971H8.90039V16.5354L7.43917 16.4976L7.40039 17.9971ZM7.17383 17.9912L7.098 19.4893L7.11652 19.4902L7.13505 19.4907L7.17383 17.9912ZM3 13.5986H1.5V13.5987L3 13.5986ZM6.86816 9.23242L7.04755 10.7217L8.20051 10.5828L8.35486 9.43178L6.86816 9.23242ZM11.7109 5V6.5C13.4186 6.5 14.833 7.76529 15.0644 9.41014L16.5498 9.20117L18.0352 8.99221C17.5985 5.88851 14.936 3.5 11.7109 3.5V5ZM16.5498 9.20117L16.5666 10.7011C16.5796 10.7009 16.5907 10.7007 16.5984 10.7005C16.6024 10.7004 16.6059 10.7003 16.6085 10.7002C16.6098 10.7002 16.6111 10.7002 16.612 10.7002C16.6131 10.7001 16.6139 10.7001 16.6146 10.7001C16.6178 10.7 16.6171 10.7 16.615 10.7001C16.6127 10.7001 16.6073 10.7002 16.5997 10.7002L16.5996 9.2002L16.5995 7.7002C16.5695 7.7002 16.5438 7.70091 16.5348 7.70115C16.5279 7.70133 16.5277 7.70134 16.526 7.70138C16.5255 7.70139 16.5283 7.70132 16.533 7.70127L16.5498 9.20117ZM16.5996 9.2002V10.7002C18.202 10.7002 19.5 11.9985 19.5 13.5986H21H22.5C22.5 10.3402 19.8574 7.7002 16.5996 7.7002V9.2002ZM21 13.5986L19.5 13.5986C19.5 15.1086 18.343 16.3504 16.8654 16.4836L17 17.9775L17.1346 19.4715C20.1421 19.2004 22.5 16.6776 22.5 13.5986L21 13.5986ZM17 17.9775H15.5V17.999H17H18.5V17.9775H17ZM17 17.999V16.499H7.40039V17.999V19.499H17V17.999ZM7.40039 17.999H8.90039V17.9971H7.40039H5.90039V17.999H7.40039ZM7.40039 17.9971L7.43917 16.4976L7.21261 16.4917L7.17383 17.9912L7.13505 19.4907L7.36161 19.4966L7.40039 17.9971ZM7.17383 17.9912L7.24965 16.4931C5.71807 16.4156 4.50002 15.1485 4.5 13.5986L3 13.5986L1.5 13.5987C1.50005 16.7556 3.97975 19.3315 7.098 19.4893L7.17383 17.9912ZM3 13.5986H4.5C4.5 12.1182 5.61219 10.8946 7.04755 10.7217L6.86816 9.23242L6.68878 7.74319C3.7657 8.09529 1.5 10.5805 1.5 13.5986H3ZM6.86816 9.23242L8.35486 9.43178C8.57683 7.77647 9.99591 6.50009 11.711 6.5L11.7109 5L11.7109 3.5C8.47179 3.50018 5.80033 5.90957 5.38147 9.03306L6.86816 9.23242Z" fill="black" mask="url(#path-1-inside-1_9597_1120)"/>
</g>
</svg>
