<svg width="24" height="24" viewBox="0 0 24 24" fill="none" xmlns="http://www.w3.org/2000/svg">
<path d="M10.2998 7.5C10.4103 7.5 10.5 7.58974 10.5 7.7002V8.7998C10.5 8.91026 10.4103 9 10.2998 9H8C6.34315 9 5 10.3431 5 12C5 13.6569 6.34315 15 8 15H10.2998C10.4103 15 10.5 15.0897 10.5 15.2002V16.2998C10.5 16.4103 10.4103 16.5 10.2998 16.5H8L7.76855 16.4941C5.39083 16.3737 3.5 14.4077 3.5 12C3.5 9.59234 5.39083 7.62632 7.76855 7.50586L8 7.5H10.2998ZM16.2314 7.50586C18.6092 7.62632 20.5 9.59234 20.5 12C20.5 14.4077 18.6092 16.3737 16.2314 16.4941L16 16.5H13.7002C13.5897 16.5 13.5 16.4103 13.5 16.2998V15.2002C13.5 15.0897 13.5897 15 13.7002 15H16C17.6569 15 19 13.6569 19 12C19 10.3431 17.6569 9 16 9H13.7002C13.5897 9 13.5 8.91026 13.5 8.7998V7.7002C13.5 7.58974 13.5897 7.5 13.7002 7.5H16L16.2314 7.50586ZM16 12.75H8V11.25H16V12.75Z" fill="#3BD159"/>
</svg>
