<svg width="18" height="18" viewBox="0 0 18 18" fill="none" xmlns="http://www.w3.org/2000/svg">
<path d="M18 16.0506C18 17.0838 17.2143 17.9813 16.1813 17.9985C16.1209 17.9995 16.0604 18.0001 16 18.0001C7.1634 18.0001 0 10.8367 0 2.00007C0 1.89544 0.00160223 1.79107 0.00474346 1.68691C0.0340589 0.714904 0.889785 0.0149995 1.86223 0.0110193C2.59882 0.00800439 3.33541 0.00403224 4.07201 0.00177155C4.62142 8.53301e-05 5.06418 0.458225 5.14207 1.00209C5.24221 1.7015 5.45779 2.67302 5.74781 3.51816C5.88167 3.90824 6.02651 4.27162 6.15359 4.57017C6.34681 5.0241 6.21402 5.56097 5.81263 5.84781C5.26481 6.2393 4.51757 6.77326 4.04355 7.11187C5.35752 10.1812 7.8189 12.6426 10.8882 13.9566C11.3164 13.3571 11.7415 12.7552 12.1712 12.1568C12.45 11.7685 12.9641 11.6396 13.4013 11.8327C13.6937 11.9619 13.9876 12.0836 14.291 12.1922C15.1594 12.503 16.0732 12.7258 17.0016 12.8585C17.0279 12.8622 17.0542 12.8659 17.0805 12.8694C17.5976 12.939 18 13.3633 18 13.8851C18 14.607 18 15.3288 18 16.0506Z" fill="#17181A"/>
</svg>
