<svg width="22" height="22" viewBox="0 0 22 22" fill="none" xmlns="http://www.w3.org/2000/svg">
<path d="M10.9995 0.499512C16.592 0.499512 21.1263 5.03303 21.1265 10.6255V15.6704C21.1265 15.7572 21.1177 15.8424 21.1069 15.9263C20.9042 18.6882 18.8832 20.9442 16.2349 21.5005L15.5542 19.5903C16.7953 19.4135 17.8602 18.6892 18.4966 17.6704H16.0815C14.9771 17.6703 14.0816 16.7748 14.0815 15.6704V11.7456C14.0815 10.6411 14.9771 9.74575 16.0815 9.74561H19.0786C18.6397 5.6716 15.1901 2.49951 10.9995 2.49951C6.80907 2.49971 3.36024 5.67173 2.92139 9.74561H5.91748C7.02205 9.74561 7.91748 10.641 7.91748 11.7456V15.6704C7.91743 16.7749 7.02202 17.6704 5.91748 17.6704H2.87354C1.769 17.6704 0.873591 16.7749 0.873535 15.6704V10.6255C0.873746 5.03316 5.40718 0.499722 10.9995 0.499512Z" fill="#17181A"/>
</svg>
