<svg width="24" height="16" viewBox="0 0 24 16" fill="none" xmlns="http://www.w3.org/2000/svg">
<path d="M10.2411 11.3995C9.71112 11.443 9.18111 11.4542 8.65015 11.4635C7.42917 11.4833 5.21187 11.4804 3.9912 11.4753C3.55242 11.4731 3.11363 11.4705 2.67484 11.4625C2.35671 11.4568 2.03923 11.4491 1.72142 11.4305C1.50963 11.4197 1.29867 11.3964 1.08964 11.3607C0.947959 11.3369 0.809518 11.2968 0.677099 11.241C0.237672 11.049 0.0136376 10.665 0.000835662 10.198C-0.00684551 9.93076 0.0395616 9.676 0.0933298 9.41708C0.166607 9.06306 0.257507 8.71383 0.348139 8.36561L0.35769 8.32892C0.536277 7.63409 0.863687 6.3603 1.11973 5.68819C1.31976 5.16203 1.58412 4.63843 2.08627 4.30526C2.36696 4.11899 2.66236 4.0201 2.98721 3.95481C3.22775 3.90885 3.47093 3.87796 3.71532 3.86232C4.12498 3.83031 4.53465 3.82231 4.94495 3.81527C5.52808 3.80503 6.11121 3.80279 6.69434 3.80087C7.50255 3.79873 8.31655 3.79882 9.12651 3.79891H9.12709C9.28878 3.79893 9.4503 3.79895 9.61158 3.79895C9.43918 4.43904 9.26657 5.07914 9.09374 5.71924C8.8857 5.71924 8.67714 5.71911 8.46831 5.71898H8.46749C7.80917 5.71857 7.14813 5.71816 6.49206 5.7218C6.45385 5.72204 6.41564 5.72221 6.37742 5.72238C6.16344 5.72333 5.94945 5.72427 5.73547 5.73812C5.64615 5.73981 5.5575 5.75392 5.47207 5.78005C5.35813 5.81941 5.3018 5.89111 5.25188 5.99384C5.18755 6.12558 5.14738 6.26374 5.10693 6.40289C5.10129 6.42228 5.09565 6.4417 5.08993 6.46111C5.01856 6.70339 4.95263 6.94695 4.8867 7.19082C4.78492 7.56624 4.68315 7.94198 4.58681 8.31868C4.55097 8.45822 4.51608 8.59776 4.486 8.7389C4.46356 8.83704 4.447 8.93643 4.43639 9.03655C4.42615 9.14664 4.42295 9.27914 4.48952 9.38124C4.55609 9.48333 4.67195 9.50926 4.77756 9.52462C4.89817 9.54006 5.01956 9.5485 5.14114 9.5499C5.32915 9.55565 5.51716 9.55654 5.70517 9.55743L5.73835 9.55758C6.28265 9.56036 6.82673 9.56036 7.3706 9.55758C7.62152 9.55758 7.87244 9.55438 8.12303 9.54446L8.13994 9.54377C8.30668 9.53701 8.47165 9.53031 8.63511 9.49037C8.76313 9.45837 8.86555 9.41004 8.95292 9.30443C9.00882 9.23311 9.0537 9.15382 9.08606 9.06919C9.16878 8.85989 9.23994 8.6462 9.29921 8.42909C9.50408 7.73638 9.69219 7.0392 9.88035 6.34184L9.881 6.33944C9.91778 6.20311 9.95456 6.06678 9.99148 5.93047C10.443 4.26131 10.891 2.59161 11.3357 0.921387H15.1763C14.7741 2.4205 14.3704 3.91918 13.9652 5.41743L13.9086 5.62572L13.9085 5.62603C13.644 6.60018 13.3795 7.57419 13.0921 8.54207C12.958 8.99398 12.8239 9.44461 12.6479 9.88339C12.5064 10.2354 12.3483 10.5494 12.0561 10.8115C11.8447 10.9997 11.5942 11.1385 11.3226 11.218C10.9699 11.3281 10.6092 11.3694 10.2411 11.3995Z" fill="#17181A"/>
<path d="M15.3619 3.79799H19.2025C18.7881 5.34041 18.3774 6.88369 17.9703 8.42782C17.9518 8.49855 17.9333 8.56929 17.9148 8.64002C17.7313 9.3416 17.5479 10.043 17.3363 10.737C17.11 11.4795 16.8319 12.2732 16.4267 12.9453C16.0042 13.6494 15.457 14.1986 14.6984 14.5504C14.3988 14.6879 14.0845 14.791 13.7617 14.8576C13.2998 14.9555 12.8361 14.9959 12.3666 15.0224C11.315 15.0803 9.19608 15.079 7.9417 15.0783C7.80985 15.0782 7.68754 15.0781 7.57703 15.0781L8.28882 12.438C8.34367 12.438 8.39852 12.438 8.45336 12.4381H8.45348C8.93782 12.4382 9.42196 12.4384 9.90635 12.4249C10.4264 12.4105 10.999 12.3827 11.5114 12.2614C12.0724 12.1289 12.4959 11.901 12.8665 11.4446C13.2045 11.0285 13.4314 10.5101 13.6176 10.0207C13.9572 9.12712 14.3054 7.84757 14.5506 6.92743C14.8027 5.98023 15.046 5.03065 15.2893 4.08134L15.3619 3.79799Z" fill="#17181A"/>
<path d="M24 3.79799H20.1601L18.0881 11.4782H21.928L24 3.79799Z" fill="#17181A"/>
</svg>
