<svg width="19" height="18" viewBox="0 0 19 18" fill="none" xmlns="http://www.w3.org/2000/svg">
<path d="M13.6025 4.00488C14.1065 4.0564 14.5 4.48246 14.5 5V10.5L14.4951 10.6025C14.4472 11.0728 14.0728 11.447 13.6025 11.4951L13.5 11.5H12V13L11.9951 13.1025C11.9472 13.573 11.573 13.9472 11.1025 13.9951L11 14H5.5L5.39746 13.9951C4.92703 13.9472 4.55278 13.573 4.50488 13.1025L4.5 13V7.5C4.5 6.98232 4.89333 6.55621 5.39746 6.50488L5.5 6.5H7V5C7 4.48246 7.39352 4.0564 7.89746 4.00488L8 4H13.5L13.6025 4.00488ZM5.5 13H11V7.5H5.5V13ZM8 6.5H11L11.1025 6.50488C11.6067 6.55621 12 6.98232 12 7.5V10.5H13.5V5H8V6.5Z" fill="black" fill-opacity="0.6"/>
</svg>
