<svg width="52" height="52" viewBox="0 0 52 52" fill="none" xmlns="http://www.w3.org/2000/svg">
<rect width="52" height="52" rx="26" fill="#FF2635"/>
<path fill-rule="evenodd" clip-rule="evenodd" d="M22.5714 18L22.7928 17.2253C22.9154 16.796 23.3078 16.5 23.7543 16.5H28.2457C28.6922 16.5 29.0846 16.796 29.2072 17.2253L29.4286 18H35V20H30H22H17V18H22.5714ZM33.1215 33.1992C33.0165 34.7751 31.7078 36 30.1284 36H21.8706C20.3899 35.9998 19.1465 34.9234 18.9106 33.4902L18.8774 33.1992L18.1967 23H20.2016L20.8725 33.0664C20.9075 33.5915 21.3443 33.9998 21.8706 34H30.1284C30.6548 34 31.0914 33.5917 31.1264 33.0664L31.7973 23H33.8022L33.1215 33.1992Z" fill="white"/>
</svg>
