<svg width="20" height="20" viewBox="0 0 20 20" fill="none" xmlns="http://www.w3.org/2000/svg">
<path d="M4.99178 4.10761C5.10883 4.2248 5.17457 4.38366 5.17457 4.54928C5.17457 4.71491 5.10883 4.87376 4.99178 4.99095C4.33401 5.6487 3.81224 6.42957 3.45625 7.28897C3.10027 8.14838 2.91705 9.06948 2.91705 9.9997C2.91705 10.9299 3.10027 11.851 3.45625 12.7104C3.81224 13.5698 4.33401 14.3507 4.99178 15.0084C5.10558 15.1264 5.1685 15.2843 5.167 15.4482C5.1655 15.612 5.09969 15.7688 4.98376 15.8846C4.86782 16.0004 4.71104 16.0661 4.54716 16.0674C4.38329 16.0688 4.22544 16.0057 4.10762 15.8918C0.85345 12.6376 0.85345 7.36178 4.10762 4.10761C4.2248 3.99057 4.38366 3.92483 4.54928 3.92483C4.71491 3.92483 4.87376 3.99057 4.99095 4.10761H4.99178ZM15.8926 4.10761C19.1468 7.36178 19.1468 12.6376 15.8926 15.8926C15.7741 16.003 15.6174 16.0631 15.4555 16.0603C15.2936 16.0574 15.1391 15.9918 15.0246 15.8773C14.9101 15.7628 14.8445 15.6083 14.8416 15.4464C14.8388 15.2845 14.8989 15.1278 15.0093 15.0093C15.6672 14.3515 16.1891 13.5706 16.5451 12.7111C16.9012 11.8516 17.0844 10.9304 17.0844 10.0001C17.0844 9.0698 16.9012 8.1486 16.5451 7.28912C16.1891 6.42964 15.6672 5.64871 15.0093 4.99095C14.9479 4.93373 14.8986 4.86473 14.8645 4.78806C14.8303 4.7114 14.8119 4.62864 14.8105 4.54472C14.809 4.4608 14.8244 4.37744 14.8558 4.29962C14.8873 4.22179 14.9341 4.1511 14.9934 4.09175C15.0528 4.0324 15.1235 3.98561 15.2013 3.95418C15.2791 3.92275 15.3625 3.90731 15.4464 3.90879C15.5303 3.91027 15.6131 3.92864 15.6897 3.9628C15.7664 3.99696 15.8354 4.04621 15.8926 4.10761ZM7.34845 6.46428C7.46549 6.58147 7.53123 6.74032 7.53123 6.90595C7.53123 7.07157 7.46549 7.23043 7.34845 7.34761C7.0001 7.69585 6.72377 8.1093 6.53524 8.56435C6.34671 9.0194 6.24967 9.50714 6.24967 9.9997C6.24967 10.4923 6.34671 10.98 6.53524 11.435C6.72377 11.8901 7.0001 12.3035 7.34845 12.6518C7.45885 12.7703 7.51895 12.927 7.5161 13.0889C7.51324 13.2508 7.44765 13.4053 7.33314 13.5198C7.21862 13.6343 7.06414 13.6999 6.90222 13.7028C6.7403 13.7056 6.5836 13.6455 6.46512 13.5351C5.52751 12.5974 5.00077 11.3257 5.00077 9.9997C5.00077 8.67367 5.52751 7.40195 6.46512 6.46428C6.5823 6.34724 6.74116 6.2815 6.90678 6.2815C7.07241 6.2815 7.23126 6.34724 7.34845 6.46428ZM13.536 6.46428C14.4736 7.40195 15.0003 8.67367 15.0003 9.9997C15.0003 11.3257 14.4736 12.5974 13.536 13.5351C13.4783 13.5948 13.4094 13.6425 13.3331 13.6753C13.2569 13.7081 13.1749 13.7253 13.0919 13.7261C13.0089 13.7269 12.9266 13.7111 12.8498 13.6797C12.773 13.6483 12.7032 13.6019 12.6445 13.5433C12.5858 13.4846 12.5393 13.4149 12.5078 13.3381C12.4764 13.2613 12.4605 13.179 12.4612 13.096C12.4619 13.013 12.4791 12.931 12.5118 12.8547C12.5445 12.7785 12.5921 12.7095 12.6518 12.6518C13 12.3036 13.2762 11.8902 13.4647 11.4352C13.6532 10.9802 13.7501 10.4926 13.7501 10.0001C13.7501 9.50765 13.6532 9.02002 13.4647 8.56504C13.2762 8.11007 13 7.69667 12.6518 7.34845C12.5414 7.22997 12.4813 7.07326 12.4841 6.91135C12.487 6.74943 12.5526 6.59494 12.6671 6.48043C12.7816 6.36592 12.9361 6.30033 13.098 6.29747C13.2599 6.29461 13.4166 6.35471 13.5351 6.46511L13.536 6.46428ZM10.0001 8.75011C10.3316 8.75011 10.6496 8.88181 10.884 9.11623C11.1184 9.35065 11.2501 9.66859 11.2501 10.0001C11.2501 10.3316 11.1184 10.6496 10.884 10.884C10.6496 11.1184 10.3316 11.2501 10.0001 11.2501C9.6686 11.2501 9.35065 11.1184 9.11623 10.884C8.88181 10.6496 8.75012 10.3316 8.75012 10.0001C8.75012 9.66859 8.88181 9.35065 9.11623 9.11623C9.35065 8.88181 9.6686 8.75011 10.0001 8.75011Z" fill="#198CFF"/>
</svg>
