<svg width="25" height="24" viewBox="0 0 25 24" fill="none" xmlns="http://www.w3.org/2000/svg">
<path d="M5.91895 5.24706C5.99705 5.16895 6.12404 5.16895 6.20215 5.24706L18.6475 17.6924C18.7251 17.7704 18.7252 17.8966 18.6475 17.9746L17.8691 18.7529C17.7911 18.8306 17.665 18.8306 17.5869 18.7529L15.4053 16.5713H14.2002C14.0899 16.5713 14.0002 16.4814 14 16.3711V15.2715C14 15.2407 14.0071 15.2116 14.0195 15.1855L11.6553 12.8213H8.7002C8.58985 12.8213 8.50018 12.7314 8.5 12.6211V11.5215C8.5 11.411 8.58974 11.3213 8.7002 11.3213H10.1553L7.95508 9.12108C6.55843 9.3774 5.5 10.6005 5.5 12.0713C5.50018 13.728 6.84326 15.0713 8.5 15.0713H10.7998C10.9103 15.0713 11 15.161 11 15.2715V16.3711C10.9998 16.4814 10.9101 16.5713 10.7998 16.5713H8.5L8.26855 16.5654C5.89094 16.445 4.00018 14.4788 4 12.0713C4 10.2046 5.13687 8.60325 6.75586 7.92186L5.1416 6.3076C5.0635 6.2295 5.0635 6.1025 5.1416 6.0244L5.91895 5.24706ZM16.7314 7.57713C19.1092 7.6976 21 9.66362 21 12.0713C20.9999 13.6613 20.1747 15.058 18.9297 15.8584L17.8281 14.7568C18.8176 14.2666 19.4999 13.2503 19.5 12.0713C19.5 10.4144 18.1569 9.07127 16.5 9.07127H14.2002C14.0899 9.07127 14.0002 8.98138 14 8.87108V7.77147C14 7.66101 14.0897 7.57127 14.2002 7.57127H16.5L16.7314 7.57713ZM16.2998 11.3213C16.4103 11.3213 16.5 11.411 16.5 11.5215V12.6211C16.4998 12.7314 16.4101 12.8213 16.2998 12.8213H15.8926L14.3926 11.3213H16.2998Z" fill="black" fill-opacity="0.4"/>
</svg>
