<svg width="24" height="24" viewBox="0 0 24 24" fill="none" xmlns="http://www.w3.org/2000/svg">
<g opacity="0.6">
<path d="M12 4C16.4182 4 20 7.58172 20 12C20 16.4182 16.4182 20 12 20C10.6382 20 9.35588 19.6597 8.2334 19.0596L5.84082 19.5908L5.68164 19.6152C4.89168 19.6853 4.23053 18.9631 4.40918 18.1592L4.94043 15.7666C4.34028 14.6441 4 13.3618 4 12C4 7.58172 7.58172 4 12 4ZM12 5.5C8.41015 5.5 5.5 8.41015 5.5 12C5.5 13.1093 5.7769 14.1493 6.26367 15.0596L6.52539 15.5498L6.40527 16.0928L5.97461 18.0244L7.90723 17.5947L8.4502 17.4746L8.94043 17.7363C9.8507 18.2231 10.8907 18.5 12 18.5C15.5898 18.5 18.5 15.5898 18.5 12C18.5 8.41015 15.5898 5.5 12 5.5ZM9.5 11.5C9.5 12.8807 10.6193 14 12 14C13.3807 14 14.5 12.8807 14.5 11.5H16C16 13.7091 14.2091 15.5 12 15.5C9.79086 15.5 8 13.7091 8 11.5H9.5Z" fill="black"/>
</g>
</svg>
