<svg width="18" height="18" viewBox="0 0 18 18" fill="none" xmlns="http://www.w3.org/2000/svg">
<path d="M10.3431 4.12778C10.7096 3.82913 11.2394 3.82918 11.6058 4.12778L11.682 4.19712L13.8031 6.31821L13.8724 6.39438C14.171 6.76074 14.1708 7.28964 13.8724 7.6561L13.8031 7.73227L7.73181 13.8036C7.56768 13.9677 7.35237 14.069 7.12341 14.0916L7.04431 14.0956H9.43884L10.4379 13.0965H13.9037V14.0965H4.90369C4.35145 14.0965 3.90369 13.6488 3.90369 13.0965V10.9754C3.90371 10.7103 4.00919 10.4559 4.19666 10.2684L10.2679 4.19712L10.3431 4.12778ZM4.90369 10.9754V13.0965H7.02478L13.0961 7.02524L10.975 4.90415L4.90369 10.9754Z" fill="black" fill-opacity="0.6"/>
</svg>
