<svg width="24" height="24" viewBox="0 0 24 24" fill="none" xmlns="http://www.w3.org/2000/svg">
<g opacity="0.6">
<path d="M16.8867 4.0127C17.4134 4.07306 17.8986 4.34134 18.2305 4.7627L19.5713 6.46582C19.8489 6.81845 20 7.2543 20 7.70312V18C20 19.1046 19.1046 20 18 20H6C4.89543 20 4 19.1046 4 18V8.11328C4.00004 7.76364 4.09168 7.42101 4.26465 7.11914L4.34375 6.99219L5.77539 4.87891C6.12425 4.36376 6.69126 4.04202 7.30762 4.00391L7.43164 4H16.6592L16.8867 4.0127ZM5.5 18C5.5 18.2761 5.72386 18.5 6 18.5H18C18.2761 18.5 18.5 18.2761 18.5 18V8.25H5.5V18ZM16 15.2744H9.44824L10.1387 15.9648L9.71387 16.3887L9.29004 16.8125L7.91699 15.4404C7.41322 14.9365 7.77001 14.0746 8.48242 14.0742H16V15.2744ZM16.083 11.3369C16.5869 11.8408 16.23 12.7028 15.5176 12.7031H8V11.5029H14.5518L13.8613 10.8125L14.2861 10.3887L14.71 9.96484L16.083 11.3369ZM7.43164 5.5C7.26578 5.5 7.1106 5.58242 7.01758 5.71973L6.31934 6.75H17.8857L17.0518 5.69043C16.957 5.57019 16.8122 5.50011 16.6592 5.5H7.43164Z" fill="black"/>
</g>
</svg>
