<svg width="25" height="24" viewBox="0 0 25 24" fill="none" xmlns="http://www.w3.org/2000/svg">
<path fill-rule="evenodd" clip-rule="evenodd" d="M3.25 6C3.25 5.17157 3.92157 4.5 4.75 4.5H15.25C16.0784 4.5 16.75 5.17157 16.75 6V6.75H8.5C6.84315 6.75 5.5 8.09315 5.5 9.75V15.75H4.75C3.92157 15.75 3.25 15.0784 3.25 14.25V6ZM7 9.75C7 8.92157 7.67157 8.25 8.5 8.25H19C19.8284 8.25 20.5 8.92157 20.5 9.75V18C20.5 18.8284 19.8284 19.5 19 19.5H8.5C7.67157 19.5 7 18.8284 7 18V9.75ZM18.25 11.25C18.25 12.0784 17.5784 12.75 16.75 12.75C15.9216 12.75 15.25 12.0784 15.25 11.25C15.25 10.4216 15.9216 9.75 16.75 9.75C17.5784 9.75 18.25 10.4216 18.25 11.25ZM18.7752 16.7815L17.3357 14.9821C17.0354 14.6068 16.4646 14.6068 16.1643 14.9821L15.2984 16.0645L12.85 12.8C12.55 12.4 11.95 12.4 11.65 12.8L8.65001 16.8C8.27919 17.2944 8.63198 18 9.25001 18L15.25 17.9999C15.2599 17.9999 15.2697 17.9998 15.2794 17.9994C15.2897 17.9998 15.3 18 15.3105 18H18.1895C18.8184 18 19.168 17.2726 18.7752 16.7815Z" fill="black" fill-opacity="0.9"/>
</svg>
