<svg width="24" height="24" viewBox="0 0 24 24" fill="none" xmlns="http://www.w3.org/2000/svg">
<g opacity="0.6">
<path d="M20.4053 13.7695C19.7924 17.8617 16.263 21 12 21C7.73705 21 4.2076 17.8617 3.59473 13.7695L5.06641 13.46C5.53439 16.8717 8.45972 19.5 12 19.5C15.5402 19.5 18.4646 16.8716 18.9326 13.46L20.4053 13.7695ZM12 3C14.4853 3 16.5 5.01472 16.5 7.5V12.5L16.4941 12.7314C16.3737 15.1092 14.4077 17 12 17C9.51472 17 7.5 14.9853 7.5 12.5V7.5C7.5 5.01472 9.51472 3 12 3ZM12 4.5C10.3431 4.5 9 5.84315 9 7.5V12.5C9 14.1569 10.3431 15.5 12 15.5C13.6569 15.5 15 14.1569 15 12.5V7.5C15 5.84315 13.6569 4.5 12 4.5Z" fill="black"/>
</g>
</svg>
