<svg width="24" height="24" viewBox="0 0 24 24" fill="none" xmlns="http://www.w3.org/2000/svg">
<g opacity="0.6">
<path d="M15.75 4.5H17C18.1045 4.5 18.9999 5.39549 19 6.5V19L18.9893 19.2041C18.8938 20.1456 18.1456 20.8938 17.2041 20.9893L17 21H7L6.7959 20.9893C5.85439 20.8938 5.10625 20.1456 5.01074 19.2041L5 19V6.5C5.00007 5.39549 5.89547 4.5 7 4.5H8.25V3H15.75V4.5ZM7 6C6.7239 6 6.50007 6.22391 6.5 6.5V19C6.50006 19.2761 6.7239 19.5 7 19.5H17C17.2761 19.5 17.4999 19.2761 17.5 19V6.5C17.4999 6.22391 17.2761 6 17 6H15.75V7.5H8.25V6H7ZM9.75 6H14.25V4.5H9.75V6Z" fill="black"/>
</g>
</svg>
