<svg width="32" height="32" viewBox="0 0 32 32" fill="none" xmlns="http://www.w3.org/2000/svg">
<path d="M16.5664 5.01465C22.3783 5.30944 27 10.1148 27 16L26.9854 16.5664C26.6906 22.3783 21.8852 27 16 27L15.4336 26.9854C9.8093 26.7001 5.29993 22.1907 5.01465 16.5664L5 16C5 9.92487 9.92487 5 16 5L16.5664 5.01465ZM16 7C11.0294 7 7 11.0294 7 16C7 20.9706 11.0294 25 16 25C20.9706 25 25 20.9706 25 16C25 11.0294 20.9706 7 16 7ZM18.5 13C18.7761 13 19 13.2239 19 13.5V18.5C19 18.7761 18.7761 19 18.5 19H13.5C13.2239 19 13 18.7761 13 18.5V13.5C13 13.2239 13.2239 13 13.5 13H18.5Z" fill="#F5F5F5"/>
</svg>
