<svg width="24" height="24" viewBox="0 0 24 24" fill="none" xmlns="http://www.w3.org/2000/svg">
<g opacity="0.6">
<path d="M12 14.25C13.7266 14.25 15.5847 14.5939 17.0381 15.2471C18.4332 15.8741 19.75 16.9348 19.75 18.5V20H18.25V18.5C18.25 17.8827 17.7072 17.1925 16.4229 16.6152C15.1968 16.0643 13.5552 15.75 12 15.75C10.4448 15.75 8.80317 16.0643 7.57715 16.6152C6.29278 17.1925 5.75 17.8827 5.75 18.5V20H4.25V18.5C4.25 16.9348 5.56682 15.8741 6.96191 15.2471C8.41527 14.5939 10.2734 14.25 12 14.25ZM12.1348 4C14.62 4 16.6348 6.01472 16.6348 8.5C16.6348 10.9853 14.62 13 12.1348 13C9.64948 13 7.63477 10.9853 7.63477 8.5C7.63477 6.01472 9.64948 4 12.1348 4ZM12.1348 5.5C10.4779 5.5 9.13477 6.84315 9.13477 8.5C9.13477 10.1569 10.4779 11.5 12.1348 11.5C13.7916 11.5 15.1348 10.1569 15.1348 8.5C15.1348 6.84315 13.7916 5.5 12.1348 5.5Z" fill="black"/>
</g>
</svg>
