<svg width="25" height="24" viewBox="0 0 25 24" fill="none" xmlns="http://www.w3.org/2000/svg">
<path d="M14.9717 4.5C15.6024 4.5 16.1663 4.89455 16.3818 5.4873L16.8408 6.75H19.5C20.7426 6.75 21.75 7.75736 21.75 9V17.25C21.75 18.4926 20.7426 19.5 19.5 19.5H6C4.75737 19.5 3.75 18.4926 3.75 17.25V9C3.75 7.75736 4.75736 6.75 6 6.75H8.65918L9.11816 5.4873C9.33373 4.89455 9.89758 4.5 10.5283 4.5H14.9717ZM12.75 9C10.6789 9 9 10.6789 9 12.75C9 14.8211 10.6789 16.5 12.75 16.5C14.8211 16.5 16.5 14.8211 16.5 12.75C16.5 10.6789 14.8211 9 12.75 9ZM12.75 10.5C13.9926 10.5 15 11.5074 15 12.75C15 13.9926 13.9926 15 12.75 15C11.5074 15 10.5 13.9926 10.5 12.75C10.5 11.5074 11.5074 10.5 12.75 10.5Z" fill="black" fill-opacity="0.9"/>
</svg>
