<svg width="32" height="32" viewBox="0 0 32 32" fill="none" xmlns="http://www.w3.org/2000/svg">
<path d="M11.5 9.3584C8.56867 10.5453 6.5002 13.4185 6.5 16.7754C6.50024 20.8547 9.554 24.2187 13.5 24.7109V26.7246C8.4469 26.2228 4.50025 21.9605 4.5 16.7754C4.50021 12.2981 7.44329 8.50874 11.5 7.23438V9.3584ZM17.5664 19.918C18.1187 19.918 18.5605 20.0796 18.8906 20.4033C19.2272 20.7208 19.3955 21.1912 19.3955 21.8135V24.7754C19.3955 25.3849 19.2179 25.852 18.8623 26.1758C18.5131 26.4996 18.0588 26.6611 17.5 26.6611C16.9349 26.6611 16.4874 26.502 16.1572 26.1846C15.8271 25.8607 15.6621 25.3912 15.6621 24.7754V21.8135C15.6621 21.1912 15.8363 20.7208 16.1855 20.4033C16.5347 20.0796 16.9952 19.918 17.5664 19.918ZM23.0889 21.0703H21.3262V22.7471H22.8506V23.8037H21.3262V26.585H20.1553V20.0137H23.0889V21.0703ZM26.623 21.0703H24.8613V22.7471H26.3848V23.8037H24.8613V26.585H23.6895V20.0137H26.623V21.0703ZM17.5381 20.9756C17.2905 20.9756 17.1094 21.061 16.9951 21.2324C16.8872 21.4039 16.833 21.6611 16.833 22.0039V24.6416C16.833 25.2829 17.0682 25.6045 17.5381 25.6045C17.7603 25.6045 17.9287 25.5215 18.043 25.3564C18.1636 25.185 18.2236 24.9464 18.2236 24.6416V22.0039C18.2236 21.6676 18.1669 21.4136 18.0527 21.2422C17.9384 21.0644 17.7667 20.9756 17.5381 20.9756ZM17.5 7.23438C21.5567 8.50874 24.4998 12.2981 24.5 16.7754H22.5C22.4998 13.4185 20.4313 10.5453 17.5 9.3584V7.23438ZM15.5 15.7754H13.5V5.27539H15.5V15.7754Z" fill="#17181A"/>
</svg>
