<svg width="32" height="32" viewBox="0 0 32 32" fill="none" xmlns="http://www.w3.org/2000/svg">
<path d="M18.1973 20.0068C18.7494 20.0069 19.1904 20.1686 19.5205 20.4922C19.857 20.8097 20.0254 21.2801 20.0254 21.9023V24.8643C20.0254 25.4738 19.8477 25.9408 19.4922 26.2646C19.1431 26.5882 18.6893 26.7499 18.1309 26.75C17.5657 26.75 17.1173 26.5909 16.7871 26.2734C16.4572 25.9496 16.292 25.4799 16.292 24.8643V21.9023C16.292 21.2801 16.4672 20.8097 16.8164 20.4922C17.1656 20.1686 17.626 20.0068 18.1973 20.0068ZM11.5 9.33301C8.56867 10.5199 6.5002 13.3931 6.5 16.75C6.50024 20.8293 9.554 24.1933 13.5 24.6855V26.6992C8.4469 26.1974 4.50025 21.9351 4.5 16.75C4.50021 12.2727 7.44329 8.48335 11.5 7.20898V9.33301ZM21.957 20.1016L23.3281 23.7598V20.1016H24.5V26.6738H23.3281L21.957 23.1689V26.6738H20.7852V20.1016H21.957ZM18.1689 21.0635C17.9213 21.0635 17.7403 21.1499 17.626 21.3213C17.518 21.4927 17.4639 21.7499 17.4639 22.0928V24.7305C17.4639 25.3718 17.6991 25.6924 18.1689 25.6924C18.3908 25.6923 18.5586 25.6101 18.6729 25.4453C18.7935 25.2739 18.8545 25.0352 18.8545 24.7305V22.0928C18.8545 21.7564 18.7968 21.5025 18.6826 21.3311C18.5684 21.1534 18.3973 21.0636 18.1689 21.0635ZM17.5 7.20898C21.5567 8.48335 24.4998 12.2727 24.5 16.75H22.5C22.4998 13.3931 20.4313 10.5199 17.5 9.33301V7.20898ZM15.5 15.75H13.5V5.25H15.5V15.75Z" fill="#F5F5F5"/>
</svg>
