<svg width="24" height="24" viewBox="0 0 24 24" fill="none" xmlns="http://www.w3.org/2000/svg">
<g opacity="0.6">
<path d="M11.7003 5.60449C13.8504 3.45451 17.3363 3.45466 19.4865 5.60449L19.6828 5.80957C21.6295 7.96427 21.5693 11.2869 19.505 13.3711L19.7863 13.0908L13.5158 19.3789L13.3537 19.5254C12.5117 20.2138 11.2668 20.1641 10.4826 19.377L6.30972 15.1875L4.51285 13.3906C2.36301 11.2405 2.3629 7.75455 4.51285 5.60449L4.71793 5.40918C6.77458 3.55113 9.89429 3.52227 11.9865 5.31836L10.923 6.38086C9.34991 5.10748 7.03643 5.20227 5.57339 6.66504C4.00924 8.22931 4.00935 10.7657 5.57339 12.3301L7.37222 14.1289L11.5451 18.3184C11.7953 18.5695 12.2027 18.5701 12.4533 18.3193L16.9298 13.8301L17.9884 14.8887V14.8877L13.797 10.6953L12.5988 11.8936C11.6064 12.8858 9.99738 12.8859 9.00504 11.8936C8.01279 10.9012 8.01278 9.29215 9.00504 8.2998L11.7003 5.60449ZM18.4709 6.62012C16.8818 5.03134 14.305 5.03119 12.716 6.62012L10.0207 9.31543C9.58946 9.74673 9.58947 10.4466 10.0207 10.8779C10.452 11.3092 11.1518 11.3092 11.5832 10.8779L13.797 8.66406L17.9894 12.8564L18.4709 12.375C20.0599 10.7859 20.0599 8.20919 18.4709 6.62012Z" fill="black"/>
</g>
</svg>
