<svg width="24" height="24" viewBox="0 0 24 24" fill="none" xmlns="http://www.w3.org/2000/svg">
<g opacity="0.6">
<path d="M12 3C16.9706 3 21 7.02944 21 12C21 16.9706 16.9706 21 12 21C7.02944 21 3 16.9706 3 12C3 7.02944 7.02944 3 12 3ZM12 4.5C7.85786 4.5 4.5 7.85786 4.5 12C4.5 16.1421 7.85786 19.5 12 19.5C16.1421 19.5 19.5 16.1421 19.5 12C19.5 7.85786 16.1421 4.5 12 4.5ZM7.69531 8.19824C8.1505 7.78052 8.86254 7.92936 9.14941 8.44238L9.83594 9.66992L10.2451 10.4023L9.59082 10.7676L8.93555 11.1338L8.52637 10.4014L8.27539 9.95215C7.94065 10.5594 7.75 11.2579 7.75 12.001C7.75052 14.3477 9.65311 16.251 12 16.251C12.252 16.251 12.4983 16.2283 12.7373 16.1865L12.8672 16.9258L12.9961 17.6641C12.6721 17.7207 12.3391 17.751 12 17.751C8.82468 17.751 6.25052 15.1762 6.25 12.001C6.25 10.5874 6.76089 9.2902 7.60742 8.28906L7.69531 8.19824ZM12 6.24902C15.1755 6.24902 17.7497 8.82458 17.75 12C17.7499 13.4134 17.239 14.7099 16.3926 15.7109L16.3047 15.8018C15.8495 16.2195 15.1375 16.0706 14.8506 15.5576L14.1641 14.3301L13.7549 13.5977L14.4092 13.2324L15.0645 12.8662L15.4736 13.5986L15.7246 14.0479C16.0593 13.4406 16.25 12.7421 16.25 11.999C16.2495 9.65225 14.3469 7.74902 12 7.74902C11.748 7.74902 11.5017 7.77173 11.2627 7.81348L11.1328 7.07422L11.0039 6.33594C11.3279 6.2793 11.6609 6.24902 12 6.24902Z" fill="black"/>
</g>
</svg>
