<svg width="24" height="24" viewBox="0 0 24 24" fill="none" xmlns="http://www.w3.org/2000/svg">
<g opacity="0.6">
<path d="M10.8818 3.55859C11.5856 3.20673 12.4144 3.20673 13.1182 3.55859L18.6182 6.30859C19.465 6.73206 19.9999 7.59812 20 8.54492V15.4551C19.9998 16.4018 19.465 17.268 18.6182 17.6914L13.1182 20.4414C12.4144 20.7932 11.5856 20.7932 10.8818 20.4414L5.38184 17.6914C4.53502 17.268 4.00017 16.4018 4 15.4551V8.54492C4.00006 7.59809 4.53498 6.73207 5.38184 6.30859L10.8818 3.55859ZM12.4473 4.90039C12.1658 4.75967 11.8342 4.75967 11.5527 4.90039L6.05273 7.65039C5.71406 7.81978 5.50006 8.16625 5.5 8.54492V15.4551C5.50017 15.8337 5.71409 16.1803 6.05273 16.3496L11.5527 19.0996C11.8342 19.2403 12.1658 19.2403 12.4473 19.0996L17.9473 16.3496C18.2859 16.1803 18.4998 15.8337 18.5 15.4551V8.54492C18.4999 8.16627 18.2859 7.81977 17.9473 7.65039L12.4473 4.90039ZM12 8C14.2 8 16 9.8 16 12C15.9999 14.1999 14.1999 16 12 16C9.80008 16 8.00013 14.1999 8 12C8 9.8 9.8 8 12 8ZM12 9.5C10.6284 9.5 9.5 10.6284 9.5 12C9.50013 13.3715 10.6285 14.5 12 14.5C13.3715 14.5 14.4999 13.3715 14.5 12C14.5 10.6284 13.3716 9.5 12 9.5Z" fill="black"/>
</g>
</svg>
