<svg width="24" height="24" viewBox="0 0 24 24" fill="none" xmlns="http://www.w3.org/2000/svg">
<g opacity="0.6">
<path d="M12 3.25C14.0396 3.25021 15.7217 4.77705 15.9678 6.75H18C19.1046 6.75 20 7.64543 20 8.75V18.75C20 19.8546 19.1046 20.75 18 20.75H6C4.96435 20.75 4.113 19.9628 4.01074 18.9541L4 18.75V8.75C4 7.64543 4.89543 6.75 6 6.75H8.0332C8.27934 4.77711 9.96047 3.25021 12 3.25ZM6 8.25C5.72386 8.25 5.5 8.47386 5.5 8.75V18.75C5.5 19.0261 5.72386 19.25 6 19.25H18C18.2761 19.25 18.5 19.0261 18.5 18.75V8.75C18.5 8.47386 18.2761 8.25 18 8.25H6ZM9.5 10.25C9.5 11.6307 10.6193 12.75 12 12.75C13.3807 12.75 14.5 11.6307 14.5 10.25H16C16 12.4591 14.2091 14.25 12 14.25C9.79086 14.25 8 12.4591 8 10.25H9.5ZM12 4.75C10.791 4.7502 9.78657 5.60944 9.55469 6.75H14.4453C14.2134 5.60943 13.209 4.7502 12 4.75Z" fill="black"/>
</g>
</svg>
