<svg width="24" height="24" viewBox="0 0 24 24" fill="none" xmlns="http://www.w3.org/2000/svg">
<g opacity="0.6">
<path d="M9.47559 4.07617C10.0496 3.67122 10.8485 4.0296 11.0029 4.71484C11.2753 5.92686 11.7287 6.9842 12.5117 7.59082C13.1336 8.07248 13.9572 8.09305 14.918 8.13086C15.4001 8.14983 15.7847 8.52581 15.833 9.00586L16.1729 12.3994C16.2223 12.8934 16.4687 13.347 16.8555 13.6582L19.5039 15.7891C19.9757 16.1686 20.2499 16.7422 20.25 17.3477V18.0938C20.25 19.1983 19.3546 20.0938 18.25 20.0938H15.0723L14.8213 20.0879C13.5712 20.0252 12.3863 19.4949 11.5049 18.5977L4.72363 11.6943C3.46801 10.4158 3.61166 8.34216 4.99609 7.24414L5.13379 7.1416L9.47559 4.07617ZM11.001 20.0908H5.75V18.5908H9.45215L11.001 20.0908ZM7.71289 7.15625L9.82617 9.69141L10.3066 10.2676L9.1543 11.2285L8.67383 10.6523L6.4834 8.02441L5.99902 8.36719C5.2435 8.9005 5.14604 9.98374 5.79395 10.6436L12.5752 17.5469C13.2332 18.2167 14.1333 18.5937 15.0723 18.5938H18.25C18.5261 18.5938 18.75 18.3699 18.75 18.0938V17.3477C18.7499 17.1964 18.6813 17.0528 18.5635 16.958L15.915 14.8271C15.215 14.2639 14.7702 13.4428 14.6807 12.5488L14.3857 9.60938C13.5797 9.57402 12.4825 9.46641 11.5928 8.77734C10.5953 8.00472 10.0485 6.85193 9.72168 5.73828L7.71289 7.15625ZM7.73047 16.9229H3.75V15.4229H6.18164L7.73047 16.9229Z" fill="black"/>
</g>
</svg>
