<svg width="64" height="64" viewBox="0 0 64 64" fill="none" xmlns="http://www.w3.org/2000/svg">
<path d="M37 50C40.866 50 44 46.866 44 43" stroke="black" stroke-width="1.5" stroke-linecap="round"/>
<path d="M32 17.25C39.0416 17.25 44.75 22.9584 44.75 30V32.75H46C48.2091 32.75 50 34.5409 50 36.75V39.75L49.9951 39.9561C49.8913 42.0012 48.2512 43.6413 46.2061 43.7451L46 43.75H43L42.7959 43.7393C41.8543 43.6438 41.1062 42.8957 41.0107 41.9541L41 41.75V34.75C41 33.6454 41.8954 32.75 43 32.75H43.25V30C43.25 23.7868 38.2132 18.75 32 18.75C25.7868 18.75 20.75 23.7868 20.75 30V32.75H21C22.1046 32.75 23 33.6454 23 34.75V41.75L22.9893 41.9541C22.8938 42.8957 22.1457 43.6438 21.2041 43.7393L21 43.75H18L17.7939 43.7451C15.7488 43.6413 14.1087 42.0012 14.0049 39.9561L14 39.75V36.75C14 34.5409 15.7909 32.75 18 32.75H19.25V30C19.25 22.9584 24.9584 17.25 32 17.25ZM18 34.25C16.6193 34.25 15.5 35.3693 15.5 36.75V39.75C15.5 41.1307 16.6193 42.25 18 42.25H21C21.2761 42.25 21.5 42.0261 21.5 41.75V34.75C21.5 34.4739 21.2761 34.25 21 34.25H18ZM43 34.25C42.7239 34.25 42.5 34.4739 42.5 34.75V41.75C42.5 42.0261 42.7239 42.25 43 42.25H46C47.3807 42.25 48.5 41.1307 48.5 39.75V36.75C48.5 35.3693 47.3807 34.25 46 34.25H43Z" fill="black"/>
</svg>
