<svg width="64" height="64" viewBox="0 0 64 64" fill="none" xmlns="http://www.w3.org/2000/svg">
<path d="M32.6816 15.9482C32.8126 15.9202 32.9464 15.9279 33.0713 15.9688C34.3915 16.0581 35.7025 16.3098 36.9736 16.7246C39.9909 17.7093 42.6494 19.5652 44.6133 22.0586C46.5772 24.5521 47.7586 27.5721 48.0088 30.7363C48.0412 31.1491 47.733 31.5103 47.3203 31.543C46.9076 31.5755 46.5465 31.2672 46.5137 30.8545C46.4271 29.7593 46.2168 28.6832 45.8916 27.6455H37.6553C37.8699 29.0923 37.9791 30.5584 37.9775 32.0322C37.9771 32.4464 37.6407 32.7817 37.2266 32.7812C36.8384 32.7807 36.5194 32.4856 36.4814 32.1074L36.4775 32.0312C36.4791 30.5569 36.3648 29.0907 36.1387 27.6455H27.8369C27.6125 29.0808 27.4981 30.5368 27.498 32.001C27.4981 33.4661 27.6131 34.9231 27.8379 36.3594H32.8389C33.2529 36.3595 33.5889 36.6953 33.5889 37.1094C33.5887 37.5234 33.2529 37.8592 32.8389 37.8594H28.1143C28.7645 40.9203 29.922 43.8645 31.5518 46.5654C32.0465 46.5802 32.5432 46.5721 33.04 46.5361C33.453 46.5064 33.8119 46.8174 33.8418 47.2305C33.8715 47.6433 33.5613 48.0021 33.1484 48.0322C32.5239 48.0774 31.8996 48.0841 31.2783 48.0566C31.1563 48.0801 31.0327 48.0721 30.916 48.0361C28.5143 47.8756 26.1688 47.1793 24.0586 45.9824C21.2978 44.4165 19.0627 42.068 17.6348 39.2334C16.2068 36.3987 15.6493 33.2043 16.0342 30.0537C16.4191 26.9032 17.7295 23.9368 19.7979 21.5293C21.8662 19.1221 24.6009 17.3805 27.6572 16.5254C28.7221 16.2275 29.8098 16.0436 30.9023 15.9697C31.0275 15.9285 31.1616 15.9202 31.293 15.9482C31.7558 15.9283 32.219 15.9282 32.6816 15.9482ZM18.6475 37.8594C18.7507 38.0945 18.8577 38.3284 18.9736 38.5586C20.2683 41.1287 22.2957 43.258 24.7988 44.6777C26.3301 45.5462 27.9984 46.1233 29.7197 46.3945C28.2375 43.7203 27.1829 40.8402 26.583 37.8594H18.6475ZM18.083 27.6455C17.8196 28.4861 17.6313 29.3528 17.5234 30.2354C17.2709 32.3022 17.4677 34.3896 18.085 36.3594H26.3213C26.108 34.9218 25.9981 33.4654 25.998 32.001C25.998 30.5377 26.1073 29.0821 26.3203 27.6455H18.083ZM34.2568 17.6113C35.7386 20.2855 36.7938 23.165 37.3936 26.1455H45.3291C44.8362 25.0228 44.2013 23.9608 43.4346 22.9873C41.654 20.7265 39.2436 19.0432 36.5078 18.1504C35.7699 17.9096 35.017 17.7311 34.2568 17.6113ZM31.5498 17.4404C29.9206 20.1413 28.7632 23.085 28.1133 26.1455H35.8623C35.2121 23.0845 34.0536 20.1407 32.4238 17.4395C32.1326 17.4308 31.8412 17.4317 31.5498 17.4404ZM29.7178 17.6104C29.1612 17.6981 28.6079 17.8178 28.0615 17.9707C25.2905 18.746 22.8108 20.3244 20.9355 22.5068C19.9916 23.6055 19.2226 24.8335 18.6465 26.1455H26.582C27.1816 23.1648 28.236 20.2847 29.7178 17.6104Z" fill="black"/>
<path d="M38.5083 36.412C40.5167 34.532 43.7729 34.532 45.7813 36.412C47.5811 38.0967 47.7936 40.7603 46.2812 42.6766L43.3086 46.443C42.7204 47.1883 41.5692 47.1883 40.981 46.443L38.0084 42.6766C36.496 40.7603 36.7085 38.0967 38.5083 36.412Z" stroke="black" stroke-width="1.5" stroke-linecap="round" stroke-linejoin="round"/>
</svg>
