<svg width="64" height="64" viewBox="0 0 64 64" fill="none" xmlns="http://www.w3.org/2000/svg">
<path d="M14.8654 30.8284V25.2431C14.8654 23.6624 15.7963 22.2299 17.2408 21.5879L29.4722 16.1517C30.5065 15.692 31.6871 15.692 32.7213 16.1517L44.9527 21.5879C46.3972 22.2299 47.3281 23.6624 47.3281 25.2431V38.079C47.3281 39.6597 46.3972 41.0922 44.9527 41.7342L32.6943 47.1824C31.6758 47.6351 30.5146 47.6423 29.4905 47.2022L24.995 45.2704" stroke="black" stroke-width="1.5" stroke-linecap="round" stroke-linejoin="round"/>
<path d="M31.0962 29.8571L15.7665 23.5449M31.0962 29.8571L46.4258 23.5449M31.0962 29.8571V46.9902" stroke="black" stroke-width="1.5" stroke-linecap="round" stroke-linejoin="round"/>
<path d="M15.7137 34.5H20.8548M14 39.1411H24.2822M17.4274 43.5H22.5685" stroke="black" stroke-width="1.5" stroke-linecap="round" stroke-linejoin="round"/>
</svg>
