<svg width="64" height="64" viewBox="0 0 64 64" fill="none" xmlns="http://www.w3.org/2000/svg">
<path d="M28 2.3094C30.4752 0.880338 33.5248 0.880339 36 2.3094L55.7128 13.6906C58.188 15.1197 59.7128 17.7607 59.7128 20.6188V43.3812C59.7128 46.2393 58.188 48.8803 55.7128 50.3094L36 61.6906C33.5248 63.1197 30.4752 63.1197 28 61.6906L8.28719 50.3094C5.81198 48.8803 4.28719 46.2393 4.28719 43.3812V20.6188C4.28719 17.7607 5.81198 15.1197 8.28719 13.6906L28 2.3094Z" fill="url(#paint0_linear_7140_4174)"/>
<path d="M24.085 18.287C31.6577 13.9159 41.3419 16.5114 45.7139 24.0838C47.0085 26.3267 47.6894 28.7552 47.8135 31.1756L49.3096 31.1756C50.3483 31.1759 50.9336 32.3699 50.2979 33.1913L47.1494 37.2557C46.649 37.9017 45.6733 37.9017 45.1729 37.2557L42.0225 33.1913C41.3869 32.37 41.9723 31.1761 43.0107 31.1756L44.4717 31.1756C44.3507 29.3223 43.8184 27.467 42.8271 25.7498C39.3756 19.7715 31.7295 17.7227 25.751 21.1737C25.1866 21.4995 24.6568 21.8626 24.1634 22.2581C23.7424 22.5956 23.1294 22.5899 22.7473 22.2088L21.7978 21.2617C21.3996 20.8645 21.4053 20.2146 21.8372 19.8543C22.5285 19.2776 23.2789 18.7523 24.085 18.287Z" fill="white"/>
<path d="M40.1318 45.4298C32.5591 49.8009 22.8749 47.2054 18.5029 39.633C17.2083 37.3901 16.5274 34.9615 16.4033 32.5412L14.9072 32.5412C13.8685 32.5409 13.2832 31.3469 13.9189 30.5255L17.0674 26.4611C17.5678 25.8151 18.5435 25.8151 19.0439 26.4611L22.1943 30.5255C22.8299 31.3468 22.2445 32.5407 21.2061 32.5412L19.7451 32.5412C19.8661 34.3945 20.3984 36.2498 21.3896 37.967C24.8412 43.9453 32.4873 45.9941 38.4658 42.5431C39.0302 42.2173 39.56 41.8542 40.0534 41.4587C40.4744 41.1212 41.0874 41.1269 41.4695 41.508L42.419 42.4551C42.8172 42.8523 42.8115 43.5022 42.3796 43.8625C41.6883 44.4392 40.9379 44.9645 40.1318 45.4298Z" fill="white"/>
<defs>
<linearGradient id="paint0_linear_7140_4174" x1="0" y1="0" x2="32" y2="64" gradientUnits="userSpaceOnUse">
<stop stop-color="#8CCEFF"/>
<stop offset="1" stop-color="#198CFF"/>
</linearGradient>
</defs>
</svg>
