<svg width="64" height="64" viewBox="0 0 64 64" fill="none" xmlns="http://www.w3.org/2000/svg">
<path d="M21.4492 27.8906V35H20.1064V27.8906H21.4492ZM24.3154 30.9619V32.0215H21.0977V30.9619H24.3154ZM24.6914 27.8906V28.9502H21.0977V27.8906H24.6914ZM25.6045 27.8906H28.1875C28.7279 27.8906 29.1917 27.972 29.5791 28.1348C29.9665 28.2975 30.2643 28.5384 30.4727 28.8574C30.681 29.1764 30.7852 29.5687 30.7852 30.0342C30.7852 30.402 30.7201 30.721 30.5898 30.9912C30.4596 31.2614 30.2757 31.4876 30.0381 31.6699C29.8037 31.8522 29.527 31.9954 29.208 32.0996L28.7881 32.3145H26.5078L26.498 31.2549H28.2021C28.4788 31.2549 28.7083 31.2061 28.8906 31.1084C29.0729 31.0107 29.2096 30.8757 29.3008 30.7031C29.3952 30.5306 29.4424 30.3337 29.4424 30.1123C29.4424 29.8747 29.3968 29.6696 29.3057 29.4971C29.2145 29.3213 29.0762 29.1862 28.8906 29.0918C28.7051 28.9974 28.4707 28.9502 28.1875 28.9502H26.9473V35H25.6045V27.8906ZM29.6182 35L27.9727 31.8164L29.3936 31.8115L31.0586 34.9316V35H29.6182ZM36.6738 33.9453V35H32.8945V33.9453H36.6738ZM33.3047 27.8906V35H31.9619V27.8906H33.3047ZM36.1807 30.8252V31.8555H32.8945V30.8252H36.1807ZM36.6592 27.8906V28.9502H32.8945V27.8906H36.6592ZM42.3184 33.9453V35H38.5391V33.9453H42.3184ZM38.9492 27.8906V35H37.6064V27.8906H38.9492ZM41.8252 30.8252V31.8555H38.5391V30.8252H41.8252ZM42.3037 27.8906V28.9502H38.5391V27.8906H42.3037Z" fill="black"/>
<path d="M33.999 17.25C36.3645 17.25 38.3265 18.979 38.6895 21.2422H44.3711C45.0856 21.2422 45.6302 21.2315 46.123 21.4092C46.4683 21.5338 46.7865 21.7252 47.0586 21.9717C47.447 22.3236 47.6929 22.8092 48.0283 23.4404L51.1289 29.2754C51.7131 30.3749 52.0438 30.994 52.2715 31.6543C52.4388 32.1394 52.5637 32.6387 52.6436 33.1455C52.7522 33.8354 52.75 34.538 52.75 35.7832V39.7119C52.75 40.2964 52.7502 40.7835 52.7158 41.1787C52.6805 41.5835 52.6049 41.9631 52.4102 42.3174C52.1588 42.7744 51.7822 43.151 51.3252 43.4023C50.971 43.597 50.5912 43.6728 50.1865 43.708C49.7914 43.7424 49.3041 43.7422 48.7197 43.7422H47.5C47.4346 43.7421 47.372 43.7306 47.3115 43.7148C47.2882 43.8572 47.2592 43.9988 47.2217 44.1387C47.0736 44.691 46.8188 45.2094 46.4707 45.6631C46.1226 46.1167 45.6876 46.4973 45.1924 46.7832C44.6973 47.069 44.1508 47.2544 43.584 47.3291C43.017 47.4038 42.4401 47.3658 41.8877 47.2178C41.3355 47.0698 40.8178 46.8148 40.3643 46.4668C39.9105 46.1186 39.5291 45.6838 39.2432 45.1885C38.9859 44.7428 38.8107 44.2553 38.7236 43.749L28.499 43.7422C28.0851 43.7416 27.7498 43.4052 27.75 42.9912C27.7505 42.5774 28.0862 42.2422 28.5 42.2422L38.7266 42.25C38.7484 42.127 38.7762 42.0048 38.8086 41.8838C38.9566 41.3315 39.2125 40.814 39.5605 40.3604C39.9087 39.9066 40.3426 39.5252 40.8379 39.2393C41.3331 38.9534 41.8804 38.768 42.4473 38.6934C43.0141 38.6188 43.5903 38.6567 44.1426 38.8047C44.695 38.9527 45.2133 39.2085 45.667 39.5566C46.1205 39.9047 46.5013 40.3389 46.7871 40.834L46.8896 41.0215C47.0911 41.4137 47.2306 41.8349 47.3057 42.2695C47.3678 42.2528 47.4326 42.2422 47.5 42.2422H48.7197C49.3305 42.2422 49.7416 42.2413 50.0566 42.2139C50.3614 42.1873 50.507 42.1403 50.6025 42.0879C50.8102 41.9737 50.9815 41.8023 51.0957 41.5947C51.1482 41.4992 51.1951 41.3538 51.2217 41.0488C51.2491 40.7338 51.25 40.3228 51.25 39.7119V35.7832C51.25 34.4929 51.2483 33.9262 51.1621 33.3789C51.0959 32.959 50.9921 32.5455 50.8535 32.1436C50.6728 31.6196 50.4093 31.1183 49.8037 29.9785L46.7041 24.1436C46.3157 23.4126 46.1994 23.2168 46.0518 23.083C45.9245 22.9678 45.7757 22.8786 45.6143 22.8203C45.4269 22.7528 45.1985 22.7422 44.3711 22.7422H38.1016C38.0685 22.7467 38.0343 22.75 38 22.75C37.5861 22.7498 37.2501 22.4139 37.25 22C37.25 20.2053 35.7947 18.7502 34 18.75H19.7822C18.5331 18.75 17.6434 18.7511 16.9492 18.8115C16.2649 18.8712 15.8396 18.9844 15.5039 19.1689C14.9413 19.4784 14.4783 19.9422 14.1689 20.5049C13.9845 20.8407 13.8711 21.2659 13.8115 21.9502C13.7511 22.6444 13.75 23.5333 13.75 24.7822V39.4932C13.7504 41.0112 14.9819 42.2419 16.5 42.2422C16.568 42.2422 16.6337 42.2535 16.6963 42.2705C16.7187 42.1406 16.747 42.0115 16.7812 41.8838C16.9293 41.3315 17.1851 40.814 17.5332 40.3604C17.8814 39.9066 18.3153 39.5252 18.8105 39.2393C19.3058 38.9534 19.853 38.768 20.4199 38.6934C20.9868 38.6188 21.5629 38.6567 22.1152 38.8047C22.6676 38.9527 23.1859 39.2085 23.6396 39.5566C24.0932 39.9047 24.4739 40.3389 24.7598 40.834L24.8623 41.0215C25.0905 41.4658 25.2403 41.9471 25.3057 42.4434C25.3802 43.0103 25.3423 43.5864 25.1943 44.1387C25.0463 44.691 24.7915 45.2094 24.4434 45.6631C24.0952 46.1167 23.6603 46.4973 23.165 46.7832C22.6699 47.069 22.1234 47.2544 21.5566 47.3291C20.9896 47.4038 20.4128 47.3658 19.8604 47.2178C19.3082 47.0698 18.7905 46.8148 18.3369 46.4668C17.8832 46.1186 17.5018 45.6838 17.2158 45.1885C16.9526 44.7325 16.7752 44.2327 16.6904 43.7139C16.6295 43.7299 16.566 43.7421 16.5 43.7422C14.1535 43.7419 12.2504 41.8396 12.25 39.4932V24.7822C12.25 23.5595 12.249 22.5937 12.3164 21.8193C12.3847 21.0355 12.5278 20.3766 12.8545 19.7822C13.301 18.9701 13.9693 18.3011 14.7812 17.8545C15.3757 17.5277 16.0355 17.3857 16.8193 17.3174C17.5935 17.25 18.5589 17.25 19.7812 17.25H33.999ZM20.6152 40.1807C20.2435 40.2296 19.8852 40.3516 19.5605 40.5391C19.2358 40.7265 18.9509 40.976 18.7227 41.2734C18.4945 41.5708 18.3275 41.9104 18.2305 42.2725C18.1334 42.6345 18.1083 43.0121 18.1572 43.3838C18.2062 43.7554 18.3282 44.1138 18.5156 44.4385C18.7031 44.7632 18.9525 45.0481 19.25 45.2764C19.5475 45.5046 19.8869 45.6725 20.249 45.7695C20.6111 45.8665 20.9887 45.8907 21.3604 45.8418C21.7319 45.7929 22.0905 45.6717 22.415 45.4844C22.7397 45.2969 23.0247 45.0465 23.2529 44.749C23.4811 44.4516 23.6491 44.1121 23.7461 43.75C23.843 43.388 23.8673 43.0103 23.8184 42.6387C23.7816 42.3598 23.7045 42.0883 23.5889 41.833L23.4609 41.584L23.3086 41.3477C23.1454 41.12 22.9486 40.9172 22.7256 40.7461C22.4282 40.518 22.0886 40.3509 21.7266 40.2539C21.3645 40.1569 20.9869 40.1317 20.6152 40.1807ZM42.6426 40.1807C42.2709 40.2296 41.9126 40.3516 41.5879 40.5391C41.2632 40.7265 40.9782 40.976 40.75 41.2734C40.5218 41.5708 40.3548 41.9104 40.2578 42.2725C40.1608 42.6345 40.1357 43.0121 40.1846 43.3838C40.2335 43.7554 40.3556 44.1138 40.543 44.4385C40.7304 44.7632 40.9799 45.0481 41.2773 45.2764C41.5748 45.5046 41.9142 45.6725 42.2764 45.7695C42.6384 45.8665 43.0161 45.8907 43.3877 45.8418C43.7592 45.7929 44.1178 45.6717 44.4424 45.4844C44.7671 45.2969 45.052 45.0465 45.2803 44.749C45.5084 44.4516 45.6764 44.1121 45.7734 43.75C45.8704 43.388 45.8946 43.0103 45.8457 42.6387C45.809 42.3598 45.7319 42.0883 45.6162 41.833L45.4883 41.584L45.3359 41.3477C45.1727 41.12 44.976 40.9172 44.7529 40.7461C44.4556 40.518 44.1159 40.3509 43.7539 40.2539C43.3918 40.1569 43.0142 40.1317 42.6426 40.1807Z" fill="black"/>
</svg>
