<svg width="20" height="20" viewBox="0 0 20 20" fill="none" xmlns="http://www.w3.org/2000/svg">
<path d="M8.41992 5.76514C8.51194 5.76514 8.58687 5.84012 8.58691 5.93213V6.84912C8.58679 6.94106 8.51189 7.01514 8.41992 7.01514H6.23535C4.58697 7.01514 3.25025 8.35216 3.25 10.0005C3.25022 11.6488 4.58695 12.9849 6.23535 12.9849H8.41992C8.51194 12.9849 8.58687 13.0598 8.58691 13.1519V14.0688C8.58679 14.1608 8.51189 14.2349 8.41992 14.2349H6.23535L6.0166 14.23C3.85145 14.12 2.11575 12.3834 2.00586 10.2183L2 10.0005C2.00024 7.73504 3.77934 5.88463 6.0166 5.771L6.23535 5.76514H8.41992ZM13.7637 5.76514C16.1024 5.76514 17.9988 7.66181 17.999 10.0005L17.9932 10.2183C17.8796 12.4558 16.0294 14.2349 13.7637 14.2349H11.5771C11.4852 14.2349 11.4103 14.1608 11.4102 14.0688V13.1519C11.4102 13.0598 11.4851 12.9849 11.5771 12.9849H13.7637C15.4121 12.9849 16.7488 11.6488 16.749 10.0005C16.7488 8.35216 15.4121 7.01514 13.7637 7.01514H11.5771C11.4852 7.01514 11.4103 6.94106 11.4102 6.84912V5.93213C11.4102 5.84012 11.4851 5.76514 11.5771 5.76514H13.7637ZM13.7637 10.7065H6.23535V9.29443H13.7637V10.7065Z" fill="#39B652"/>
</svg>
