<svg width="24" height="24" viewBox="0 0 24 24" fill="none" xmlns="http://www.w3.org/2000/svg">
<path d="M5.41895 5.24731C5.49705 5.16921 5.62404 5.16921 5.70215 5.24731L18.1475 17.6926C18.2251 17.7707 18.2252 17.8969 18.1475 17.9749L17.3691 18.7532C17.2911 18.8309 17.165 18.8308 17.0869 18.7532L14.9053 16.5715H13.7002C13.5899 16.5715 13.5002 16.4816 13.5 16.3713V15.2717C13.5 15.241 13.5071 15.2119 13.5195 15.1858L11.1553 12.8215H8.2002C8.08985 12.8215 8.00018 12.7316 8 12.6213V11.5217C8 11.4113 8.08974 11.3215 8.2002 11.3215H9.65527L7.45508 9.12134C6.05843 9.37766 5 10.6008 5 12.0715C5.00018 13.7282 6.34326 15.0715 8 15.0715H10.2998C10.4103 15.0715 10.5 15.1613 10.5 15.2717V16.3713C10.4998 16.4816 10.4101 16.5715 10.2998 16.5715H8C5.51483 16.5715 3.50018 14.5567 3.5 12.0715C3.5 10.2048 4.63687 8.60351 6.25586 7.92212L4.6416 6.30786C4.5635 6.22976 4.5635 6.10276 4.6416 6.02466L5.41895 5.24731ZM16.2314 7.57739C18.6092 7.69786 20.5 9.66388 20.5 12.0715C20.4999 13.6615 19.6747 15.0583 18.4297 15.8586L17.3281 14.7571C18.3176 14.2669 18.9999 13.2506 19 12.0715C19 10.4147 17.6569 9.07153 16 9.07153H13.7002C13.5899 9.07153 13.5002 8.98164 13.5 8.87134V7.77173C13.5 7.66127 13.5897 7.57153 13.7002 7.57153H16L16.2314 7.57739ZM15.7998 11.3215C15.9103 11.3215 16 11.4113 16 11.5217V12.6213C15.9998 12.7316 15.9101 12.8215 15.7998 12.8215H15.3926L13.8926 11.3215H15.7998Z" fill="black" fill-opacity="0.4"/>
</svg>
