<svg width="24" height="24" viewBox="0 0 24 24" fill="none" xmlns="http://www.w3.org/2000/svg">
<path d="M13.1172 6.15234C14.1052 5.51816 15.6 4.89082 17.1641 5.49316C18.64 6.06165 19.6337 7.28258 19.7402 8.91602C19.8438 10.5031 19.1037 12.3433 17.4619 14.2402C15.6136 16.3758 13.7654 17.7327 12.8926 18.3154C12.3433 18.6821 11.6362 18.682 11.0869 18.3154C10.2142 17.7328 8.36588 16.3757 6.51758 14.2402C4.89998 12.3713 4.16282 10.5331 4.25781 8.94336C4.3556 7.30976 5.32847 6.06559 6.81445 5.49316C8.37849 4.89076 9.87331 5.51818 10.8613 6.15234C11.3196 6.44651 11.7046 6.76532 11.9893 7.02441C12.2739 6.76531 12.6589 6.44655 13.1172 6.15234Z" stroke="white" stroke-width="1.5"/>
</svg>
