<svg width="32" height="32" viewBox="0 0 32 32" fill="none" xmlns="http://www.w3.org/2000/svg">
<path d="M15.1436 7.19932C15.9416 6.67783 17 7.25074 17 8.2042V23.796C17 24.7484 15.9438 25.3213 15.1455 24.8019L9.31738 21.0089H7C5.89543 21.0089 5 20.1135 5 19.0089V13.0089C5.00002 11.9044 5.89546 11.0089 7 11.0089H9.31738L15.1436 7.19932ZM22.4941 8.81846C25.1555 10.1215 26.9998 12.8601 27 16.0089C26.9999 19.1578 25.1555 21.8963 22.4941 23.1993L21.4258 21.4894C23.5241 20.5514 24.9999 18.4422 25 16.0089C24.9998 13.5756 23.525 11.4644 21.4268 10.5265L22.4941 8.81846ZM20.248 12.4122C21.5785 13.0637 22.4998 14.4347 22.5 16.0089C22.4999 17.5832 21.5776 18.9521 20.2471 19.6036L19.1748 17.8868C19.9429 17.6066 20.4999 16.8677 20.5 16.0089C20.4998 15.1501 19.943 14.4101 19.1748 14.13L20.248 12.4122Z" fill="#17181A"/>
</svg>
